<?xml version="1.0" standalone="no"?>
<!DOCTYPE svg PUBLIC "-//W3C//DTD SVG 20010904//EN"
 "http://www.w3.org/TR/2001/REC-SVG-20010904/DTD/svg10.dtd">
<svg version="1.0" xmlns="http://www.w3.org/2000/svg"
 width="700.000000pt" height="700.000000pt" viewBox="0 0 700.000000 700.000000"
 preserveAspectRatio="xMidYMid meet">
<metadata>
Created by potrace 1.11, written by Peter Selinger 2001-2013
</metadata>
<g transform="translate(0.000000,700.000000) scale(0.100000,-0.100000)"
fill="#000000" stroke="none">
<path d="M4729 6987 c-25 -7 -65 -25 -90 -39 -24 -15 -265 -249 -535 -520
-560 -561 -545 -543 -550 -697 -1 -65 3 -95 19 -135 22 -55 82 -142 104 -150
7 -3 13 -11 13 -18 0 -7 -532 -544 -1181 -1193 -1302 -1302 -1235 -1228 -1246
-1367 -6 -75 15 -170 50 -225 l24 -38 -364 -365 c-201 -201 -372 -378 -380
-394 -18 -35 -19 -96 -2 -128 23 -44 513 -528 555 -548 32 -16 52 -19 85 -14
42 6 63 26 420 381 l376 374 60 -30 c107 -54 220 -57 330 -6 50 22 108 77 407
376 193 192 351 349 353 349 1 0 12 -19 24 -42 33 -65 107 -147 170 -188 l58
-37 -18 -29 c-10 -16 -29 -49 -43 -74 -14 -25 -61 -106 -105 -180 -43 -75 -82
-142 -86 -150 -4 -8 -17 -31 -28 -50 -21 -34 -148 -254 -359 -620 -59 -102
-151 -261 -205 -355 -54 -93 -125 -216 -157 -273 -48 -83 -60 -112 -60 -147 0
-85 59 -145 142 -145 77 0 109 29 189 170 25 45 185 323 206 358 6 9 33 58 61
107 29 50 83 144 121 210 102 175 168 289 278 480 54 94 109 188 122 210 l23
40 0 -883 c0 -796 2 -887 16 -918 22 -46 57 -72 108 -79 56 -9 105 12 142 61
l29 37 0 887 0 887 21 -31 c11 -17 33 -53 49 -81 15 -27 69 -122 120 -210 51
-88 101 -176 112 -195 20 -35 74 -128 96 -165 6 -11 28 -47 48 -80 19 -33 42
-73 51 -90 27 -54 349 -609 376 -648 31 -47 68 -67 122 -67 75 0 137 53 147
126 6 44 -5 72 -84 207 -35 60 -74 127 -87 150 -13 23 -105 184 -206 357 -101
173 -196 340 -213 370 -17 30 -41 73 -55 94 -13 22 -34 58 -47 80 -12 23 -88
156 -170 296 -81 140 -160 278 -176 306 l-29 50 62 50 c120 96 179 213 184
366 3 82 0 108 -21 169 -42 126 -132 233 -236 281 -26 13 -47 27 -46 31 2 7
957 967 1007 1012 15 14 21 12 60 -24 86 -79 188 -113 299 -99 130 16 130 16
667 552 290 290 501 509 517 536 66 116 66 255 -1 370 -31 54 -1288 1315
-1348 1353 -82 51 -202 69 -295 44z"/>
</g>
</svg>
