<svg version="1" xmlns="http://www.w3.org/2000/svg" width="682.667" height="682.667" viewBox="0 0 512.000000 512.000000"><path d="M346 .9c-1.4.4-4.1 1.6-6 2.6-3.5 1.8-73.3 71-76.1 75.5-6.5 10.4-5 24.2 3.7 33.4l2.7 2.8-31.4 31.4-86.1 86.1c-38.9 38.9-55.5 56.1-57.4 59.7-3.7 6.7-4 16.7-.6 23.9 1.2 2.6 2.2 5 2.2 5.3 0 .4-12 12.7-26.7 27.4s-27.1 27.9-27.6 29.1c-2.1 5.8-.5 8.1 20.4 28.8 21.3 21.2 23.1 22.4 29.2 19.7 1.8-.8 15.1-13.3 29.6-27.9l26.4-26.5 5 2.5c3.8 2 6.4 2.6 11.6 2.7 10.9 0 12.9-1.4 42.1-30.5 14.3-14.3 26-25.3 26-24.5 0 2.6 8.7 13.2 13.2 16.1l4.5 2.8-5 8.6c-10.7 18.5-53.6 92.8-55.4 96.1-1.1 1.9-5.3 9-9.2 15.8-3.9 6.7-7.4 13.6-7.8 15.2-1.3 6.5 3.9 12.3 10.9 12.3 4.4 0 6.6-1.6 10.7-8.2 2.4-3.9 30.1-51.8 35.8-62.1 1.1-1.9 4.5-7.8 7.5-13s6.9-12 8.7-15c1.7-3 3.6-6.2 4.1-7 .5-.8 1.9-3.2 3-5.2 1.1-2.1 2.2-3.8 2.3-3.8.2 0 .3 28.7.3 63.8 0 67.5 0 68.2 4.6 71.1 3.5 2.2 8.6 2.5 11.3.7 6.1-4 5.8-.7 5.8-71.2 0-35.4.1-64.4.3-64.4.2 0 3.3 5.1 7.1 12 1.1 1.9 4.6 8 7.8 13.5 13.2 22.7 31.9 55.2 33.8 58.5 9 16 15.2 26.1 17 27.8 7 6.5 18.9 0 17.4-9.5-.3-1.9-2-5.7-3.8-8.6-1.8-2.9-4.3-7.2-5.7-9.7-1.4-2.5-13-22.7-25.9-44.8-12.8-22.2-23.3-40.8-23.3-41.3s-.4-.9-1-.9c-.5 0-1-.4-1-.9s-3.9-7.6-8.6-15.7l-8.5-14.7 4.5-4c9.7-8.2 14.2-18.6 13.4-30.7-.8-12-8.3-23.6-18.6-28.9l-4.3-2.2 37.5-37.4c20.6-20.6 37.8-37.5 38.3-37.5.4 0 1.9 1.2 3.2 2.6 4.7 4.9 9.9 6.9 18.6 6.9 6.9 0 8.6-.4 12.5-2.7 2.5-1.4 21-19.2 41.1-39.5 40.3-40.5 39.8-39.9 39.4-51.8-.2-3.3-1-7.8-2-10-2.4-5.8-97.4-100.7-103-103C359.8.6 349.6-.3 346 .9z"/></svg>